<mxfile host="app.diagrams.net" modified="2022-09-24T11:16:54.519Z" agent="5.0 (Windows NT 10.0; Win64; x64) AppleWebKit/537.36 (KHTML, like Gecko) Chrome/105.0.0.0 Safari/537.36 Edg/105.0.1343.42" version="20.2.4" etag="Xt8BlSnXjliMsdrTk3US" type="github" pages="4">
  <diagram id="yTbJ4ahfXUYrhZsH-rGa" name="第 1 页">
    <mxGraphModel dx="1805" dy="1163" grid="1" gridSize="10" guides="1" tooltips="1" connect="1" arrows="1" fold="1" page="1" pageScale="1" pageWidth="1169" pageHeight="827" math="0" shadow="0">
      <root>
        <mxCell id="0" />
        <mxCell id="1" parent="0" />
        <mxCell id="85" value="" style="rounded=0;whiteSpace=wrap;html=1;dashed=1;fontColor=#CC0000;strokeColor=none;" parent="1" vertex="1">
          <mxGeometry x="224" y="45" width="760" height="585" as="geometry" />
        </mxCell>
        <mxCell id="8" value="" style="rounded=0;whiteSpace=wrap;html=1;dashed=1;" parent="1" vertex="1">
          <mxGeometry x="250" y="269" width="259" height="340" as="geometry" />
        </mxCell>
        <mxCell id="9" value="" style="rounded=0;whiteSpace=wrap;html=1;dashed=1;" parent="1" vertex="1">
          <mxGeometry x="540" y="269" width="416" height="340" as="geometry" />
        </mxCell>
        <mxCell id="23" value="" style="edgeStyle=none;html=1;startArrow=none;startFill=0;endArrow=classic;endFill=1;" parent="1" source="10" target="11" edge="1">
          <mxGeometry relative="1" as="geometry" />
        </mxCell>
        <mxCell id="10" value="等待 ready 事件" style="rounded=0;whiteSpace=wrap;html=1;" parent="1" vertex="1">
          <mxGeometry x="301" y="383" width="110" height="40" as="geometry" />
        </mxCell>
        <mxCell id="11" value="处理 ready 事件&amp;nbsp;" style="rounded=0;whiteSpace=wrap;html=1;" parent="1" vertex="1">
          <mxGeometry x="301" y="479" width="110" height="40" as="geometry" />
        </mxCell>
        <mxCell id="28" value="管理实体" style="text;html=1;strokeColor=none;fillColor=none;align=center;verticalAlign=middle;whiteSpace=wrap;rounded=0;" parent="1" vertex="1">
          <mxGeometry x="566" y="53" width="60" height="30" as="geometry" />
        </mxCell>
        <mxCell id="37" value="No" style="edgeStyle=none;html=1;startArrow=none;startFill=0;endArrow=classic;endFill=1;" parent="1" source="36" target="10" edge="1">
          <mxGeometry relative="1" as="geometry" />
        </mxCell>
        <mxCell id="36" value="ready ？" style="rhombus;whiteSpace=wrap;html=1;" parent="1" vertex="1">
          <mxGeometry x="316" y="299" width="80" height="40" as="geometry" />
        </mxCell>
        <mxCell id="38" value="等待 ready 事件" style="rounded=0;whiteSpace=wrap;html=1;" parent="1" vertex="1">
          <mxGeometry x="705" y="380" width="110" height="40" as="geometry" />
        </mxCell>
        <mxCell id="43" value="No" style="edgeStyle=none;html=1;startArrow=none;startFill=0;endArrow=classic;endFill=1;" parent="1" source="42" target="38" edge="1">
          <mxGeometry relative="1" as="geometry" />
        </mxCell>
        <mxCell id="42" value="ready ？" style="rhombus;whiteSpace=wrap;html=1;" parent="1" vertex="1">
          <mxGeometry x="720" y="299" width="80" height="40" as="geometry" />
        </mxCell>
        <mxCell id="44" value="" style="curved=1;endArrow=classic;html=1;exitX=0.5;exitY=1;exitDx=0;exitDy=0;entryX=1;entryY=0.5;entryDx=0;entryDy=0;" parent="1" source="78" target="42" edge="1">
          <mxGeometry width="50" height="50" relative="1" as="geometry">
            <mxPoint x="755" y="541.9999999999995" as="sourcePoint" />
            <mxPoint x="716" y="379" as="targetPoint" />
            <Array as="points">
              <mxPoint x="755" y="559" />
              <mxPoint x="826" y="579" />
              <mxPoint x="930" y="542" />
              <mxPoint x="940" y="441" />
              <mxPoint x="910" y="361" />
            </Array>
          </mxGeometry>
        </mxCell>
        <mxCell id="46" value="顺序执行" style="text;strokeColor=none;fillColor=none;align=center;verticalAlign=middle;spacingLeft=4;spacingRight=4;overflow=hidden;points=[[0,0.5],[1,0.5]];portConstraint=eastwest;rotatable=0;" parent="1" vertex="1">
          <mxGeometry x="341.5" y="229" width="80" height="30" as="geometry" />
        </mxCell>
        <mxCell id="47" value="并行处理" style="text;strokeColor=none;fillColor=none;align=center;verticalAlign=middle;spacingLeft=4;spacingRight=4;overflow=hidden;points=[[0,0.5],[1,0.5]];portConstraint=eastwest;rotatable=0;" parent="1" vertex="1">
          <mxGeometry x="708" y="229" width="80" height="30" as="geometry" />
        </mxCell>
        <mxCell id="51" value="on_data" style="text;html=1;strokeColor=none;fillColor=none;align=center;verticalAlign=middle;whiteSpace=wrap;rounded=0;fontColor=#CC0000;" parent="1" vertex="1">
          <mxGeometry x="402" y="48" width="60" height="30" as="geometry" />
        </mxCell>
        <mxCell id="56" value="" style="shape=table;html=1;whiteSpace=wrap;startSize=0;container=1;collapsible=0;childLayout=tableLayout;dashed=1;" parent="1" vertex="1">
          <mxGeometry x="267" y="90" width="667" height="120" as="geometry" />
        </mxCell>
        <mxCell id="57" value="" style="shape=partialRectangle;html=1;whiteSpace=wrap;collapsible=0;dropTarget=0;pointerEvents=0;fillColor=none;top=0;left=0;bottom=0;right=0;points=[[0,0.5],[1,0.5]];portConstraint=eastwest;dashed=1;" parent="56" vertex="1">
          <mxGeometry width="667" height="40" as="geometry" />
        </mxCell>
        <mxCell id="58" value="&lt;span&gt;Subscriber1&lt;/span&gt;" style="shape=partialRectangle;html=1;whiteSpace=wrap;connectable=0;fillColor=none;top=0;left=0;bottom=0;right=0;overflow=hidden;pointerEvents=1;dashed=1;" parent="57" vertex="1">
          <mxGeometry width="167" height="40" as="geometry">
            <mxRectangle width="167" height="40" as="alternateBounds" />
          </mxGeometry>
        </mxCell>
        <mxCell id="59" value="&lt;span&gt;Subscriber2&lt;/span&gt;" style="shape=partialRectangle;html=1;whiteSpace=wrap;connectable=0;fillColor=none;top=0;left=0;bottom=0;right=0;overflow=hidden;pointerEvents=1;dashed=1;" parent="57" vertex="1">
          <mxGeometry x="167" width="166" height="40" as="geometry">
            <mxRectangle width="166" height="40" as="alternateBounds" />
          </mxGeometry>
        </mxCell>
        <mxCell id="60" value="..." style="shape=partialRectangle;html=1;whiteSpace=wrap;connectable=0;fillColor=none;top=0;left=0;bottom=0;right=0;overflow=hidden;pointerEvents=1;dashed=1;" parent="57" vertex="1">
          <mxGeometry x="333" width="167" height="40" as="geometry">
            <mxRectangle width="167" height="40" as="alternateBounds" />
          </mxGeometry>
        </mxCell>
        <mxCell id="73" value="SubscriberN" style="shape=partialRectangle;html=1;whiteSpace=wrap;connectable=0;fillColor=none;top=0;left=0;bottom=0;right=0;overflow=hidden;pointerEvents=1;dashed=1;" parent="57" vertex="1">
          <mxGeometry x="500" width="167" height="40" as="geometry">
            <mxRectangle width="167" height="40" as="alternateBounds" />
          </mxGeometry>
        </mxCell>
        <mxCell id="61" value="" style="shape=partialRectangle;html=1;whiteSpace=wrap;collapsible=0;dropTarget=0;pointerEvents=0;fillColor=none;top=0;left=0;bottom=0;right=0;points=[[0,0.5],[1,0.5]];portConstraint=eastwest;dashed=1;" parent="56" vertex="1">
          <mxGeometry y="40" width="667" height="40" as="geometry" />
        </mxCell>
        <mxCell id="62" value="Timer1" style="shape=partialRectangle;html=1;whiteSpace=wrap;connectable=0;fillColor=none;top=0;left=0;bottom=0;right=0;overflow=hidden;pointerEvents=1;dashed=1;" parent="61" vertex="1">
          <mxGeometry width="167" height="40" as="geometry">
            <mxRectangle width="167" height="40" as="alternateBounds" />
          </mxGeometry>
        </mxCell>
        <mxCell id="63" value="Timer2" style="shape=partialRectangle;html=1;whiteSpace=wrap;connectable=0;fillColor=none;top=0;left=0;bottom=0;right=0;overflow=hidden;pointerEvents=1;dashed=1;" parent="61" vertex="1">
          <mxGeometry x="167" width="166" height="40" as="geometry">
            <mxRectangle width="166" height="40" as="alternateBounds" />
          </mxGeometry>
        </mxCell>
        <mxCell id="64" value="..." style="shape=partialRectangle;html=1;whiteSpace=wrap;connectable=0;fillColor=none;top=0;left=0;bottom=0;right=0;overflow=hidden;pointerEvents=1;dashed=1;" parent="61" vertex="1">
          <mxGeometry x="333" width="167" height="40" as="geometry">
            <mxRectangle width="167" height="40" as="alternateBounds" />
          </mxGeometry>
        </mxCell>
        <mxCell id="74" value="TimerN" style="shape=partialRectangle;html=1;whiteSpace=wrap;connectable=0;fillColor=none;top=0;left=0;bottom=0;right=0;overflow=hidden;pointerEvents=1;dashed=1;" parent="61" vertex="1">
          <mxGeometry x="500" width="167" height="40" as="geometry">
            <mxRectangle width="167" height="40" as="alternateBounds" />
          </mxGeometry>
        </mxCell>
        <mxCell id="65" value="" style="shape=partialRectangle;html=1;whiteSpace=wrap;collapsible=0;dropTarget=0;pointerEvents=0;fillColor=none;top=0;left=0;bottom=0;right=0;points=[[0,0.5],[1,0.5]];portConstraint=eastwest;dashed=1;" parent="56" vertex="1">
          <mxGeometry y="80" width="667" height="40" as="geometry" />
        </mxCell>
        <mxCell id="66" value="Event1" style="shape=partialRectangle;html=1;whiteSpace=wrap;connectable=0;fillColor=none;top=0;left=0;bottom=0;right=0;overflow=hidden;pointerEvents=1;dashed=1;" parent="65" vertex="1">
          <mxGeometry width="167" height="40" as="geometry">
            <mxRectangle width="167" height="40" as="alternateBounds" />
          </mxGeometry>
        </mxCell>
        <mxCell id="67" value="Event2" style="shape=partialRectangle;html=1;whiteSpace=wrap;connectable=0;fillColor=none;top=0;left=0;bottom=0;right=0;overflow=hidden;pointerEvents=1;dashed=1;" parent="65" vertex="1">
          <mxGeometry x="167" width="166" height="40" as="geometry">
            <mxRectangle width="166" height="40" as="alternateBounds" />
          </mxGeometry>
        </mxCell>
        <mxCell id="68" value="..." style="shape=partialRectangle;html=1;whiteSpace=wrap;connectable=0;fillColor=none;top=0;left=0;bottom=0;right=0;overflow=hidden;pointerEvents=1;dashed=1;" parent="65" vertex="1">
          <mxGeometry x="333" width="167" height="40" as="geometry">
            <mxRectangle width="167" height="40" as="alternateBounds" />
          </mxGeometry>
        </mxCell>
        <mxCell id="75" value="EventN" style="shape=partialRectangle;html=1;whiteSpace=wrap;connectable=0;fillColor=none;top=0;left=0;bottom=0;right=0;overflow=hidden;pointerEvents=1;dashed=1;" parent="65" vertex="1">
          <mxGeometry x="500" width="167" height="40" as="geometry">
            <mxRectangle width="167" height="40" as="alternateBounds" />
          </mxGeometry>
        </mxCell>
        <mxCell id="49" value="" style="verticalLabelPosition=bottom;verticalAlign=top;html=1;shape=mxgraph.basic.flash;rotation=30;dashed=1;strokeColor=#CC0000;" parent="1" vertex="1">
          <mxGeometry x="393" y="67.25" width="17" height="50.75" as="geometry" />
        </mxCell>
        <mxCell id="52" value="" style="verticalLabelPosition=bottom;verticalAlign=top;html=1;shape=mxgraph.basic.flash;rotation=30;dashed=1;strokeColor=#CC0000;" parent="1" vertex="1">
          <mxGeometry x="558" y="106" width="17" height="50.75" as="geometry" />
        </mxCell>
        <mxCell id="53" value="on_timeout" style="text;html=1;strokeColor=none;fillColor=none;align=center;verticalAlign=middle;whiteSpace=wrap;rounded=0;fontColor=#CC0000;" parent="1" vertex="1">
          <mxGeometry x="569" y="87" width="60" height="30" as="geometry" />
        </mxCell>
        <mxCell id="54" value="" style="verticalLabelPosition=bottom;verticalAlign=top;html=1;shape=mxgraph.basic.flash;rotation=30;dashed=1;strokeColor=#CC0000;" parent="1" vertex="1">
          <mxGeometry x="887" y="145" width="17" height="50.75" as="geometry" />
        </mxCell>
        <mxCell id="55" value="on_fire" style="text;html=1;strokeColor=none;fillColor=none;align=center;verticalAlign=middle;whiteSpace=wrap;rounded=0;fontColor=#CC0000;" parent="1" vertex="1">
          <mxGeometry x="889" y="126.75" width="60" height="30" as="geometry" />
        </mxCell>
        <mxCell id="76" value="" style="curved=1;endArrow=none;html=1;exitX=0;exitY=0.5;exitDx=0;exitDy=0;entryX=0;entryY=0.5;entryDx=0;entryDy=0;endFill=0;startArrow=classic;startFill=1;" parent="1" source="11" target="36" edge="1">
          <mxGeometry width="50" height="50" relative="1" as="geometry">
            <mxPoint x="461" y="641" as="sourcePoint" />
            <mxPoint x="511" y="591" as="targetPoint" />
            <Array as="points">
              <mxPoint x="241" y="421" />
            </Array>
          </mxGeometry>
        </mxCell>
        <mxCell id="82" value="Yes" style="edgeLabel;html=1;align=center;verticalAlign=middle;resizable=0;points=[];" parent="76" vertex="1" connectable="0">
          <mxGeometry x="0.6262" y="-3" relative="1" as="geometry">
            <mxPoint as="offset" />
          </mxGeometry>
        </mxCell>
        <mxCell id="77" value="" style="curved=1;endArrow=classic;html=1;exitX=0.5;exitY=1;exitDx=0;exitDy=0;entryX=1;entryY=0.5;entryDx=0;entryDy=0;" parent="1" source="11" target="36" edge="1">
          <mxGeometry width="50" height="50" relative="1" as="geometry">
            <mxPoint x="510" y="641" as="sourcePoint" />
            <mxPoint x="560" y="591" as="targetPoint" />
            <Array as="points">
              <mxPoint x="356" y="571" />
              <mxPoint x="470" y="501" />
              <mxPoint x="480" y="411" />
              <mxPoint x="470" y="371" />
              <mxPoint x="440" y="331" />
            </Array>
          </mxGeometry>
        </mxCell>
        <mxCell id="78" value="" style="rounded=0;whiteSpace=wrap;html=1;dashed=1;" parent="1" vertex="1">
          <mxGeometry x="600" y="469" width="310" height="60" as="geometry" />
        </mxCell>
        <mxCell id="15" value="处理 ready 事件&amp;nbsp;" style="rounded=0;whiteSpace=wrap;html=1;" parent="1" vertex="1">
          <mxGeometry x="617" y="479" width="110" height="40" as="geometry" />
        </mxCell>
        <mxCell id="16" value="处理 ready 事件&amp;nbsp;" style="rounded=0;whiteSpace=wrap;html=1;" parent="1" vertex="1">
          <mxGeometry x="787" y="479" width="110" height="40" as="geometry" />
        </mxCell>
        <mxCell id="17" value="..." style="text;html=1;strokeColor=none;fillColor=none;align=center;verticalAlign=middle;whiteSpace=wrap;rounded=0;" parent="1" vertex="1">
          <mxGeometry x="727" y="484" width="60" height="30" as="geometry" />
        </mxCell>
        <mxCell id="34" value="" style="endArrow=classic;html=1;exitX=0.5;exitY=1;exitDx=0;exitDy=0;" parent="1" edge="1">
          <mxGeometry width="50" height="50" relative="1" as="geometry">
            <mxPoint x="760" y="420" as="sourcePoint" />
            <mxPoint x="760" y="471" as="targetPoint" />
          </mxGeometry>
        </mxCell>
        <mxCell id="79" value="" style="curved=1;endArrow=classic;html=1;exitX=0;exitY=0.5;exitDx=0;exitDy=0;entryX=0;entryY=0.5;entryDx=0;entryDy=0;" parent="1" source="42" target="78" edge="1">
          <mxGeometry width="50" height="50" relative="1" as="geometry">
            <mxPoint x="510" y="641" as="sourcePoint" />
            <mxPoint x="560" y="591" as="targetPoint" />
            <Array as="points">
              <mxPoint x="590" y="341" />
              <mxPoint x="550" y="491" />
            </Array>
          </mxGeometry>
        </mxCell>
        <mxCell id="81" value="Yes" style="edgeLabel;html=1;align=center;verticalAlign=middle;resizable=0;points=[];" parent="79" vertex="1" connectable="0">
          <mxGeometry x="-0.7283" y="5" relative="1" as="geometry">
            <mxPoint as="offset" />
          </mxGeometry>
        </mxCell>
      </root>
    </mxGraphModel>
  </diagram>
  <diagram id="Bnjc8M8dh_oG4qlqVJZB" name="第 2 页">
    <mxGraphModel dx="1258" dy="958" grid="1" gridSize="10" guides="1" tooltips="1" connect="1" arrows="1" fold="1" page="1" pageScale="1" pageWidth="1169" pageHeight="827" math="0" shadow="0">
      <root>
        <mxCell id="AcAuhxnEgxyWP1t7hrjo-0" />
        <mxCell id="AcAuhxnEgxyWP1t7hrjo-1" parent="AcAuhxnEgxyWP1t7hrjo-0" />
        <mxCell id="AcAuhxnEgxyWP1t7hrjo-2" value="" style="endArrow=none;dashed=1;html=1;dashPattern=1 3;strokeWidth=2;startArrow=none;" edge="1" parent="AcAuhxnEgxyWP1t7hrjo-1" source="AcAuhxnEgxyWP1t7hrjo-5">
          <mxGeometry width="50" height="50" relative="1" as="geometry">
            <mxPoint x="280" y="570" as="sourcePoint" />
            <mxPoint x="280" y="140" as="targetPoint" />
          </mxGeometry>
        </mxCell>
        <mxCell id="AcAuhxnEgxyWP1t7hrjo-3" value="Subscriber" style="ellipse;whiteSpace=wrap;html=1;" vertex="1" parent="AcAuhxnEgxyWP1t7hrjo-1">
          <mxGeometry x="238" y="83" width="85" height="50" as="geometry" />
        </mxCell>
        <mxCell id="AcAuhxnEgxyWP1t7hrjo-4" value="msg1" style="ellipse;whiteSpace=wrap;html=1;aspect=fixed;" vertex="1" parent="AcAuhxnEgxyWP1t7hrjo-1">
          <mxGeometry x="260.5" y="180" width="40" height="40" as="geometry" />
        </mxCell>
        <mxCell id="AcAuhxnEgxyWP1t7hrjo-5" value="msg2" style="ellipse;whiteSpace=wrap;html=1;aspect=fixed;" vertex="1" parent="AcAuhxnEgxyWP1t7hrjo-1">
          <mxGeometry x="260.5" y="240" width="40" height="40" as="geometry" />
        </mxCell>
        <mxCell id="AcAuhxnEgxyWP1t7hrjo-6" value="" style="endArrow=none;dashed=1;html=1;dashPattern=1 3;strokeWidth=2;startArrow=none;" edge="1" parent="AcAuhxnEgxyWP1t7hrjo-1" target="AcAuhxnEgxyWP1t7hrjo-5">
          <mxGeometry width="50" height="50" relative="1" as="geometry">
            <mxPoint x="280" y="420" as="sourcePoint" />
            <mxPoint x="280" y="140" as="targetPoint" />
          </mxGeometry>
        </mxCell>
        <mxCell id="AcAuhxnEgxyWP1t7hrjo-7" value="msgN" style="ellipse;whiteSpace=wrap;html=1;aspect=fixed;" vertex="1" parent="AcAuhxnEgxyWP1t7hrjo-1">
          <mxGeometry x="260.5" y="362" width="40" height="40" as="geometry" />
        </mxCell>
        <mxCell id="Ag1blPnQto323xa1v0N8-2" value="Executor" style="ellipse;whiteSpace=wrap;html=1;" vertex="1" parent="AcAuhxnEgxyWP1t7hrjo-1">
          <mxGeometry x="440" y="83" width="85" height="50" as="geometry" />
        </mxCell>
        <mxCell id="Ag1blPnQto323xa1v0N8-3" value="Notify" style="endArrow=classic;html=1;exitX=1;exitY=0.5;exitDx=0;exitDy=0;entryX=0;entryY=0.5;entryDx=0;entryDy=0;" edge="1" parent="AcAuhxnEgxyWP1t7hrjo-1" source="AcAuhxnEgxyWP1t7hrjo-3" target="Ag1blPnQto323xa1v0N8-2">
          <mxGeometry width="50" height="50" relative="1" as="geometry">
            <mxPoint x="580" y="390" as="sourcePoint" />
            <mxPoint x="630" y="340" as="targetPoint" />
          </mxGeometry>
        </mxCell>
        <mxCell id="Ag1blPnQto323xa1v0N8-4" value="" style="endArrow=none;dashed=1;html=1;dashPattern=1 3;strokeWidth=2;entryX=0.5;entryY=1;entryDx=0;entryDy=0;startArrow=none;" edge="1" parent="AcAuhxnEgxyWP1t7hrjo-1" source="Ag1blPnQto323xa1v0N8-5" target="Ag1blPnQto323xa1v0N8-2">
          <mxGeometry width="50" height="50" relative="1" as="geometry">
            <mxPoint x="473" y="510" as="sourcePoint" />
            <mxPoint x="630" y="340" as="targetPoint" />
          </mxGeometry>
        </mxCell>
        <mxCell id="Ag1blPnQto323xa1v0N8-5" value="cbk1" style="ellipse;whiteSpace=wrap;html=1;aspect=fixed;" vertex="1" parent="AcAuhxnEgxyWP1t7hrjo-1">
          <mxGeometry x="462.5" y="180" width="40" height="40" as="geometry" />
        </mxCell>
        <mxCell id="Ag1blPnQto323xa1v0N8-6" value="" style="endArrow=none;dashed=1;html=1;dashPattern=1 3;strokeWidth=2;entryX=0.5;entryY=1;entryDx=0;entryDy=0;startArrow=none;" edge="1" parent="AcAuhxnEgxyWP1t7hrjo-1" source="Ag1blPnQto323xa1v0N8-7" target="Ag1blPnQto323xa1v0N8-5">
          <mxGeometry width="50" height="50" relative="1" as="geometry">
            <mxPoint x="473" y="510" as="sourcePoint" />
            <mxPoint x="472.5" y="133" as="targetPoint" />
          </mxGeometry>
        </mxCell>
        <mxCell id="Ag1blPnQto323xa1v0N8-7" value="cbk2" style="ellipse;whiteSpace=wrap;html=1;aspect=fixed;" vertex="1" parent="AcAuhxnEgxyWP1t7hrjo-1">
          <mxGeometry x="462.5" y="240" width="40" height="40" as="geometry" />
        </mxCell>
        <mxCell id="Ag1blPnQto323xa1v0N8-8" value="" style="endArrow=none;dashed=1;html=1;dashPattern=1 3;strokeWidth=2;entryX=0.5;entryY=1;entryDx=0;entryDy=0;startArrow=none;" edge="1" parent="AcAuhxnEgxyWP1t7hrjo-1" target="Ag1blPnQto323xa1v0N8-7">
          <mxGeometry width="50" height="50" relative="1" as="geometry">
            <mxPoint x="483" y="420" as="sourcePoint" />
            <mxPoint x="472.5" y="220" as="targetPoint" />
          </mxGeometry>
        </mxCell>
        <mxCell id="Ag1blPnQto323xa1v0N8-11" value="1:1" style="endArrow=none;dashed=1;html=1;dashPattern=1 3;strokeWidth=2;exitX=1;exitY=0.5;exitDx=0;exitDy=0;entryX=0;entryY=0.5;entryDx=0;entryDy=0;strokeColor=#FF6666;fontColor=#FF6666;" edge="1" parent="AcAuhxnEgxyWP1t7hrjo-1" source="AcAuhxnEgxyWP1t7hrjo-4" target="Ag1blPnQto323xa1v0N8-5">
          <mxGeometry width="50" height="50" relative="1" as="geometry">
            <mxPoint x="320" y="200" as="sourcePoint" />
            <mxPoint x="450" y="200" as="targetPoint" />
          </mxGeometry>
        </mxCell>
        <mxCell id="Ag1blPnQto323xa1v0N8-9" value="cbkN" style="ellipse;whiteSpace=wrap;html=1;aspect=fixed;" vertex="1" parent="AcAuhxnEgxyWP1t7hrjo-1">
          <mxGeometry x="462.5" y="362" width="40" height="40" as="geometry" />
        </mxCell>
        <mxCell id="81kqCWUgY5Hh92wiyG7m-1" value="1:1" style="endArrow=none;dashed=1;html=1;dashPattern=1 3;strokeWidth=2;exitX=1;exitY=0.5;exitDx=0;exitDy=0;entryX=0;entryY=0.5;entryDx=0;entryDy=0;fontColor=#FF6666;strokeColor=#FF6666;" edge="1" parent="AcAuhxnEgxyWP1t7hrjo-1">
          <mxGeometry width="50" height="50" relative="1" as="geometry">
            <mxPoint x="300.5" y="259.58" as="sourcePoint" />
            <mxPoint x="462.49999999999386" y="259.58" as="targetPoint" />
          </mxGeometry>
        </mxCell>
        <mxCell id="81kqCWUgY5Hh92wiyG7m-2" value="1:1" style="endArrow=none;dashed=1;html=1;dashPattern=1 3;strokeWidth=2;exitX=1;exitY=0.5;exitDx=0;exitDy=0;entryX=0;entryY=0.5;entryDx=0;entryDy=0;strokeColor=#FF6666;fontColor=#FF6666;" edge="1" parent="AcAuhxnEgxyWP1t7hrjo-1">
          <mxGeometry width="50" height="50" relative="1" as="geometry">
            <mxPoint x="300.5" y="381.5799999999998" as="sourcePoint" />
            <mxPoint x="462.49999999999386" y="381.5799999999998" as="targetPoint" />
          </mxGeometry>
        </mxCell>
      </root>
    </mxGraphModel>
  </diagram>
  <diagram id="guJxGoGJi1dl46t3GnMl" name="第 3 页">
    <mxGraphModel dx="996" dy="758" grid="1" gridSize="10" guides="1" tooltips="1" connect="1" arrows="1" fold="1" page="1" pageScale="1" pageWidth="1169" pageHeight="827" math="0" shadow="0">
      <root>
        <mxCell id="lwGNbjON0LjeOx5bKjeX-0" />
        <mxCell id="lwGNbjON0LjeOx5bKjeX-1" parent="lwGNbjON0LjeOx5bKjeX-0" />
        <mxCell id="lwGNbjON0LjeOx5bKjeX-36" value="" style="endArrow=none;dashed=1;html=1;dashPattern=1 3;strokeWidth=2;entryX=0.5;entryY=1;entryDx=0;entryDy=0;startArrow=none;" edge="1" parent="lwGNbjON0LjeOx5bKjeX-1" target="lwGNbjON0LjeOx5bKjeX-31">
          <mxGeometry width="50" height="50" relative="1" as="geometry">
            <mxPoint x="483" y="520" as="sourcePoint" />
            <mxPoint x="482.5" y="220" as="targetPoint" />
          </mxGeometry>
        </mxCell>
        <mxCell id="lwGNbjON0LjeOx5bKjeX-2" value="" style="endArrow=none;dashed=1;html=1;dashPattern=1 3;strokeWidth=2;startArrow=none;" edge="1" parent="lwGNbjON0LjeOx5bKjeX-1" source="lwGNbjON0LjeOx5bKjeX-27">
          <mxGeometry width="50" height="50" relative="1" as="geometry">
            <mxPoint x="280" y="520" as="sourcePoint" />
            <mxPoint x="280" y="140" as="targetPoint" />
          </mxGeometry>
        </mxCell>
        <mxCell id="lwGNbjON0LjeOx5bKjeX-3" value="MasterSubscriber" style="ellipse;whiteSpace=wrap;html=1;" vertex="1" parent="lwGNbjON0LjeOx5bKjeX-1">
          <mxGeometry x="220" y="83" width="113" height="50" as="geometry" />
        </mxCell>
        <mxCell id="lwGNbjON0LjeOx5bKjeX-4" value="msg1" style="ellipse;whiteSpace=wrap;html=1;aspect=fixed;" vertex="1" parent="lwGNbjON0LjeOx5bKjeX-1">
          <mxGeometry x="260.5" y="180" width="40" height="40" as="geometry" />
        </mxCell>
        <mxCell id="lwGNbjON0LjeOx5bKjeX-8" value="Executor" style="ellipse;whiteSpace=wrap;html=1;" vertex="1" parent="lwGNbjON0LjeOx5bKjeX-1">
          <mxGeometry x="440" y="83" width="85" height="50" as="geometry" />
        </mxCell>
        <mxCell id="lwGNbjON0LjeOx5bKjeX-9" value="Notify" style="endArrow=classic;html=1;exitX=1;exitY=0.5;exitDx=0;exitDy=0;entryX=0;entryY=0.5;entryDx=0;entryDy=0;" edge="1" parent="lwGNbjON0LjeOx5bKjeX-1" source="lwGNbjON0LjeOx5bKjeX-3" target="lwGNbjON0LjeOx5bKjeX-8">
          <mxGeometry width="50" height="50" relative="1" as="geometry">
            <mxPoint x="580" y="390" as="sourcePoint" />
            <mxPoint x="630" y="340" as="targetPoint" />
          </mxGeometry>
        </mxCell>
        <mxCell id="lwGNbjON0LjeOx5bKjeX-10" value="" style="endArrow=none;dashed=1;html=1;dashPattern=1 3;strokeWidth=2;entryX=0.5;entryY=1;entryDx=0;entryDy=0;startArrow=none;" edge="1" parent="lwGNbjON0LjeOx5bKjeX-1" source="lwGNbjON0LjeOx5bKjeX-11" target="lwGNbjON0LjeOx5bKjeX-8">
          <mxGeometry width="50" height="50" relative="1" as="geometry">
            <mxPoint x="473" y="510" as="sourcePoint" />
            <mxPoint x="630" y="340" as="targetPoint" />
          </mxGeometry>
        </mxCell>
        <mxCell id="lwGNbjON0LjeOx5bKjeX-11" value="cbk1" style="ellipse;whiteSpace=wrap;html=1;aspect=fixed;" vertex="1" parent="lwGNbjON0LjeOx5bKjeX-1">
          <mxGeometry x="462.5" y="180" width="40" height="40" as="geometry" />
        </mxCell>
        <mxCell id="lwGNbjON0LjeOx5bKjeX-12" value="" style="endArrow=none;dashed=1;html=1;dashPattern=1 3;strokeWidth=2;entryX=0.5;entryY=1;entryDx=0;entryDy=0;startArrow=none;" edge="1" parent="lwGNbjON0LjeOx5bKjeX-1" source="lwGNbjON0LjeOx5bKjeX-31" target="lwGNbjON0LjeOx5bKjeX-11">
          <mxGeometry width="50" height="50" relative="1" as="geometry">
            <mxPoint x="483" y="520" as="sourcePoint" />
            <mxPoint x="472.5" y="133" as="targetPoint" />
          </mxGeometry>
        </mxCell>
        <mxCell id="lwGNbjON0LjeOx5bKjeX-17" value="" style="endArrow=none;dashed=1;html=1;dashPattern=1 3;strokeWidth=2;startArrow=none;" edge="1" parent="lwGNbjON0LjeOx5bKjeX-1" source="lwGNbjON0LjeOx5bKjeX-20">
          <mxGeometry width="50" height="50" relative="1" as="geometry">
            <mxPoint x="132" y="520" as="sourcePoint" />
            <mxPoint x="132" y="140" as="targetPoint" />
          </mxGeometry>
        </mxCell>
        <mxCell id="lwGNbjON0LjeOx5bKjeX-18" value="SlaveSubscriber" style="ellipse;whiteSpace=wrap;html=1;" vertex="1" parent="lwGNbjON0LjeOx5bKjeX-1">
          <mxGeometry x="80" y="83" width="105" height="50" as="geometry" />
        </mxCell>
        <mxCell id="lwGNbjON0LjeOx5bKjeX-19" value="msg" style="ellipse;whiteSpace=wrap;html=1;aspect=fixed;" vertex="1" parent="lwGNbjON0LjeOx5bKjeX-1">
          <mxGeometry x="112.5" y="156" width="40" height="40" as="geometry" />
        </mxCell>
        <mxCell id="lwGNbjON0LjeOx5bKjeX-22" value="msg" style="ellipse;whiteSpace=wrap;html=1;aspect=fixed;" vertex="1" parent="lwGNbjON0LjeOx5bKjeX-1">
          <mxGeometry x="112.5" y="350" width="40" height="40" as="geometry" />
        </mxCell>
        <mxCell id="lwGNbjON0LjeOx5bKjeX-23" value="" style="endArrow=none;dashed=1;html=1;dashPattern=1 3;strokeWidth=2;startArrow=none;" edge="1" parent="lwGNbjON0LjeOx5bKjeX-1" source="lwGNbjON0LjeOx5bKjeX-25" target="lwGNbjON0LjeOx5bKjeX-22">
          <mxGeometry width="50" height="50" relative="1" as="geometry">
            <mxPoint x="132" y="520" as="sourcePoint" />
            <mxPoint x="132" y="140" as="targetPoint" />
          </mxGeometry>
        </mxCell>
        <mxCell id="lwGNbjON0LjeOx5bKjeX-24" value="msg" style="ellipse;whiteSpace=wrap;html=1;aspect=fixed;" vertex="1" parent="lwGNbjON0LjeOx5bKjeX-1">
          <mxGeometry x="112.5" y="414" width="40" height="40" as="geometry" />
        </mxCell>
        <mxCell id="lwGNbjON0LjeOx5bKjeX-25" value="msg" style="ellipse;whiteSpace=wrap;html=1;aspect=fixed;" vertex="1" parent="lwGNbjON0LjeOx5bKjeX-1">
          <mxGeometry x="112.5" y="480" width="40" height="40" as="geometry" />
        </mxCell>
        <mxCell id="lwGNbjON0LjeOx5bKjeX-26" value="" style="endArrow=none;dashed=1;html=1;dashPattern=1 3;strokeWidth=2;startArrow=none;" edge="1" parent="lwGNbjON0LjeOx5bKjeX-1" target="lwGNbjON0LjeOx5bKjeX-25">
          <mxGeometry width="50" height="50" relative="1" as="geometry">
            <mxPoint x="132" y="520" as="sourcePoint" />
            <mxPoint x="132.5" y="380" as="targetPoint" />
          </mxGeometry>
        </mxCell>
        <mxCell id="lwGNbjON0LjeOx5bKjeX-27" value="msg2" style="ellipse;whiteSpace=wrap;html=1;aspect=fixed;" vertex="1" parent="lwGNbjON0LjeOx5bKjeX-1">
          <mxGeometry x="260.5" y="300" width="40" height="40" as="geometry" />
        </mxCell>
        <mxCell id="lwGNbjON0LjeOx5bKjeX-28" value="" style="endArrow=none;dashed=1;html=1;dashPattern=1 3;strokeWidth=2;startArrow=none;" edge="1" parent="lwGNbjON0LjeOx5bKjeX-1" source="lwGNbjON0LjeOx5bKjeX-29" target="lwGNbjON0LjeOx5bKjeX-27">
          <mxGeometry width="50" height="50" relative="1" as="geometry">
            <mxPoint x="280" y="520" as="sourcePoint" />
            <mxPoint x="280" y="140" as="targetPoint" />
          </mxGeometry>
        </mxCell>
        <mxCell id="lwGNbjON0LjeOx5bKjeX-29" value="msg3" style="ellipse;whiteSpace=wrap;html=1;aspect=fixed;" vertex="1" parent="lwGNbjON0LjeOx5bKjeX-1">
          <mxGeometry x="260.5" y="420" width="40" height="40" as="geometry" />
        </mxCell>
        <mxCell id="lwGNbjON0LjeOx5bKjeX-30" value="" style="endArrow=none;dashed=1;html=1;dashPattern=1 3;strokeWidth=2;startArrow=none;" edge="1" parent="lwGNbjON0LjeOx5bKjeX-1" target="lwGNbjON0LjeOx5bKjeX-29">
          <mxGeometry width="50" height="50" relative="1" as="geometry">
            <mxPoint x="280" y="520" as="sourcePoint" />
            <mxPoint x="280.5" y="320" as="targetPoint" />
          </mxGeometry>
        </mxCell>
        <mxCell id="lwGNbjON0LjeOx5bKjeX-32" value="cbk3" style="ellipse;whiteSpace=wrap;html=1;aspect=fixed;" vertex="1" parent="lwGNbjON0LjeOx5bKjeX-1">
          <mxGeometry x="462.5" y="420" width="40" height="40" as="geometry" />
        </mxCell>
        <mxCell id="lwGNbjON0LjeOx5bKjeX-33" value="" style="endArrow=none;dashed=1;html=1;dashPattern=1 3;strokeWidth=2;entryX=1;entryY=0.5;entryDx=0;entryDy=0;exitX=0;exitY=0.5;exitDx=0;exitDy=0;fontColor=#FF6666;strokeColor=#FF6666;" edge="1" parent="lwGNbjON0LjeOx5bKjeX-1" source="lwGNbjON0LjeOx5bKjeX-11" target="lwGNbjON0LjeOx5bKjeX-4">
          <mxGeometry width="50" height="50" relative="1" as="geometry">
            <mxPoint x="150" y="360" as="sourcePoint" />
            <mxPoint x="200" y="310" as="targetPoint" />
          </mxGeometry>
        </mxCell>
        <mxCell id="lwGNbjON0LjeOx5bKjeX-34" value="" style="endArrow=none;dashed=1;html=1;dashPattern=1 3;strokeWidth=2;entryX=1;entryY=0.5;entryDx=0;entryDy=0;exitX=0;exitY=0.5;exitDx=0;exitDy=0;fontColor=#FF6666;strokeColor=#FF6666;" edge="1" parent="lwGNbjON0LjeOx5bKjeX-1">
          <mxGeometry width="50" height="50" relative="1" as="geometry">
            <mxPoint x="462.49999999999386" y="319.58" as="sourcePoint" />
            <mxPoint x="300.5" y="319.58" as="targetPoint" />
          </mxGeometry>
        </mxCell>
        <mxCell id="lwGNbjON0LjeOx5bKjeX-35" value="" style="endArrow=none;dashed=1;html=1;dashPattern=1 3;strokeWidth=2;entryX=1;entryY=0.5;entryDx=0;entryDy=0;exitX=0;exitY=0.5;exitDx=0;exitDy=0;fontColor=#FF6666;strokeColor=#FF6666;" edge="1" parent="lwGNbjON0LjeOx5bKjeX-1">
          <mxGeometry width="50" height="50" relative="1" as="geometry">
            <mxPoint x="462.49999999999386" y="439.5799999999999" as="sourcePoint" />
            <mxPoint x="300.5" y="439.5799999999999" as="targetPoint" />
          </mxGeometry>
        </mxCell>
        <mxCell id="lwGNbjON0LjeOx5bKjeX-31" value="cbk2" style="ellipse;whiteSpace=wrap;html=1;aspect=fixed;" vertex="1" parent="lwGNbjON0LjeOx5bKjeX-1">
          <mxGeometry x="462.5" y="300" width="40" height="40" as="geometry" />
        </mxCell>
        <mxCell id="lwGNbjON0LjeOx5bKjeX-38" value="" style="curved=1;endArrow=none;html=1;entryX=1;entryY=0.5;entryDx=0;entryDy=0;dashed=1;startArrow=classic;startFill=1;endFill=0;fontColor=#FF6666;strokeColor=#FF6666;" edge="1" parent="lwGNbjON0LjeOx5bKjeX-1" target="lwGNbjON0LjeOx5bKjeX-19">
          <mxGeometry width="50" height="50" relative="1" as="geometry">
            <mxPoint x="460" y="200" as="sourcePoint" />
            <mxPoint x="200" y="310" as="targetPoint" />
            <Array as="points">
              <mxPoint x="360" y="150" />
              <mxPoint x="200" y="140" />
            </Array>
          </mxGeometry>
        </mxCell>
        <mxCell id="lwGNbjON0LjeOx5bKjeX-39" value="" style="curved=1;endArrow=none;html=1;dashed=1;entryX=1;entryY=0.5;entryDx=0;entryDy=0;exitX=0;exitY=0.5;exitDx=0;exitDy=0;startArrow=classic;startFill=1;endFill=0;fontColor=#FF6666;strokeColor=#FF6666;" edge="1" parent="lwGNbjON0LjeOx5bKjeX-1" source="lwGNbjON0LjeOx5bKjeX-31" target="lwGNbjON0LjeOx5bKjeX-21">
          <mxGeometry width="50" height="50" relative="1" as="geometry">
            <mxPoint x="150" y="360" as="sourcePoint" />
            <mxPoint x="200" y="310" as="targetPoint" />
            <Array as="points">
              <mxPoint x="340" y="250" />
              <mxPoint x="180" y="280" />
            </Array>
          </mxGeometry>
        </mxCell>
        <mxCell id="lwGNbjON0LjeOx5bKjeX-40" value="" style="curved=1;endArrow=none;html=1;dashed=1;entryX=1;entryY=0.5;entryDx=0;entryDy=0;startArrow=classic;startFill=1;endFill=0;fontColor=#FF6666;strokeColor=#FF6666;" edge="1" parent="lwGNbjON0LjeOx5bKjeX-1">
          <mxGeometry width="50" height="50" relative="1" as="geometry">
            <mxPoint x="462" y="439" as="sourcePoint" />
            <mxPoint x="152.5000000000066" y="428.5" as="targetPoint" />
            <Array as="points">
              <mxPoint x="340" y="378.5" />
              <mxPoint x="180" y="408.5" />
            </Array>
          </mxGeometry>
        </mxCell>
        <mxCell id="lwGNbjON0LjeOx5bKjeX-21" value="msg" style="ellipse;whiteSpace=wrap;html=1;aspect=fixed;" vertex="1" parent="lwGNbjON0LjeOx5bKjeX-1">
          <mxGeometry x="112.5" y="290" width="40" height="40" as="geometry" />
        </mxCell>
        <mxCell id="lwGNbjON0LjeOx5bKjeX-41" value="" style="endArrow=none;dashed=1;html=1;dashPattern=1 3;strokeWidth=2;startArrow=none;" edge="1" parent="lwGNbjON0LjeOx5bKjeX-1" source="lwGNbjON0LjeOx5bKjeX-22" target="lwGNbjON0LjeOx5bKjeX-21">
          <mxGeometry width="50" height="50" relative="1" as="geometry">
            <mxPoint x="132.5" y="340" as="sourcePoint" />
            <mxPoint x="132" y="140" as="targetPoint" />
          </mxGeometry>
        </mxCell>
        <mxCell id="lwGNbjON0LjeOx5bKjeX-20" value="msg" style="ellipse;whiteSpace=wrap;html=1;aspect=fixed;" vertex="1" parent="lwGNbjON0LjeOx5bKjeX-1">
          <mxGeometry x="112.5" y="220" width="40" height="40" as="geometry" />
        </mxCell>
        <mxCell id="lwGNbjON0LjeOx5bKjeX-42" value="" style="endArrow=none;dashed=1;html=1;dashPattern=1 3;strokeWidth=2;startArrow=none;" edge="1" parent="lwGNbjON0LjeOx5bKjeX-1" source="lwGNbjON0LjeOx5bKjeX-21" target="lwGNbjON0LjeOx5bKjeX-20">
          <mxGeometry width="50" height="50" relative="1" as="geometry">
            <mxPoint x="130.20832203144664" y="280.0010849811515" as="sourcePoint" />
            <mxPoint x="132" y="140" as="targetPoint" />
          </mxGeometry>
        </mxCell>
      </root>
    </mxGraphModel>
  </diagram>
  <diagram id="a34eCgsbwViXfs-oSSLg" name="第 4 页">
    <mxGraphModel dx="1805" dy="1163" grid="1" gridSize="10" guides="1" tooltips="1" connect="1" arrows="1" fold="1" page="1" pageScale="1" pageWidth="1169" pageHeight="827" math="0" shadow="0">
      <root>
        <mxCell id="oYCAlV7U3Ks-yG-8bzPH-0" />
        <mxCell id="oYCAlV7U3Ks-yG-8bzPH-1" parent="oYCAlV7U3Ks-yG-8bzPH-0" />
        <mxCell id="es1kvYz4DE-BTvd2BNAr-4" value="Executor" style="ellipse;whiteSpace=wrap;html=1;" parent="oYCAlV7U3Ks-yG-8bzPH-1" vertex="1">
          <mxGeometry x="365" y="83" width="85" height="50" as="geometry" />
        </mxCell>
        <mxCell id="es1kvYz4DE-BTvd2BNAr-5" value="Notify" style="endArrow=classic;html=1;entryX=0;entryY=0.5;entryDx=0;entryDy=0;exitX=1;exitY=0.5;exitDx=0;exitDy=0;" parent="oYCAlV7U3Ks-yG-8bzPH-1" source="es1kvYz4DE-BTvd2BNAr-10" target="es1kvYz4DE-BTvd2BNAr-4" edge="1">
          <mxGeometry width="50" height="50" relative="1" as="geometry">
            <mxPoint x="190" y="108" as="sourcePoint" />
            <mxPoint x="630" y="340" as="targetPoint" />
          </mxGeometry>
        </mxCell>
        <mxCell id="es1kvYz4DE-BTvd2BNAr-6" value="" style="endArrow=none;dashed=1;html=1;dashPattern=1 3;strokeWidth=2;entryX=0.5;entryY=1;entryDx=0;entryDy=0;startArrow=none;" parent="oYCAlV7U3Ks-yG-8bzPH-1" target="es1kvYz4DE-BTvd2BNAr-4" edge="1">
          <mxGeometry width="50" height="50" relative="1" as="geometry">
            <mxPoint x="408" y="480" as="sourcePoint" />
            <mxPoint x="555" y="340" as="targetPoint" />
          </mxGeometry>
        </mxCell>
        <mxCell id="es1kvYz4DE-BTvd2BNAr-9" value="" style="endArrow=none;dashed=1;html=1;dashPattern=1 3;strokeWidth=2;startArrow=none;" parent="oYCAlV7U3Ks-yG-8bzPH-1" source="es1kvYz4DE-BTvd2BNAr-31" target="es1kvYz4DE-BTvd2BNAr-10" edge="1">
          <mxGeometry width="50" height="50" relative="1" as="geometry">
            <mxPoint x="132" y="520" as="sourcePoint" />
            <mxPoint x="132" y="140" as="targetPoint" />
          </mxGeometry>
        </mxCell>
        <mxCell id="es1kvYz4DE-BTvd2BNAr-10" value="Subscriber" style="ellipse;whiteSpace=wrap;html=1;" parent="oYCAlV7U3Ks-yG-8bzPH-1" vertex="1">
          <mxGeometry x="80" y="83" width="105" height="50" as="geometry" />
        </mxCell>
        <mxCell id="es1kvYz4DE-BTvd2BNAr-12" value="msg" style="ellipse;whiteSpace=wrap;html=1;aspect=fixed;" parent="oYCAlV7U3Ks-yG-8bzPH-1" vertex="1">
          <mxGeometry x="112.5" y="300" width="40" height="40" as="geometry" />
        </mxCell>
        <mxCell id="es1kvYz4DE-BTvd2BNAr-13" value="" style="endArrow=none;dashed=1;html=1;dashPattern=1 3;strokeWidth=2;startArrow=none;" parent="oYCAlV7U3Ks-yG-8bzPH-1" source="es1kvYz4DE-BTvd2BNAr-14" target="es1kvYz4DE-BTvd2BNAr-12" edge="1">
          <mxGeometry width="50" height="50" relative="1" as="geometry">
            <mxPoint x="133" y="510" as="sourcePoint" />
            <mxPoint x="132" y="99" as="targetPoint" />
          </mxGeometry>
        </mxCell>
        <mxCell id="es1kvYz4DE-BTvd2BNAr-15" value="msg" style="ellipse;whiteSpace=wrap;html=1;aspect=fixed;" parent="oYCAlV7U3Ks-yG-8bzPH-1" vertex="1">
          <mxGeometry x="112.5" y="423" width="40" height="40" as="geometry" />
        </mxCell>
        <mxCell id="es1kvYz4DE-BTvd2BNAr-16" value="" style="endArrow=none;dashed=1;html=1;dashPattern=1 3;strokeWidth=2;startArrow=none;" parent="oYCAlV7U3Ks-yG-8bzPH-1" target="es1kvYz4DE-BTvd2BNAr-15" edge="1">
          <mxGeometry width="50" height="50" relative="1" as="geometry">
            <mxPoint x="132" y="479" as="sourcePoint" />
            <mxPoint x="132.5" y="339" as="targetPoint" />
          </mxGeometry>
        </mxCell>
        <mxCell id="es1kvYz4DE-BTvd2BNAr-29" value="msg" style="ellipse;whiteSpace=wrap;html=1;aspect=fixed;" parent="oYCAlV7U3Ks-yG-8bzPH-1" vertex="1">
          <mxGeometry x="112.5" y="240" width="40" height="40" as="geometry" />
        </mxCell>
        <mxCell id="es1kvYz4DE-BTvd2BNAr-30" value="" style="endArrow=none;dashed=1;html=1;dashPattern=1 3;strokeWidth=2;startArrow=none;" parent="oYCAlV7U3Ks-yG-8bzPH-1" source="es1kvYz4DE-BTvd2BNAr-12" target="es1kvYz4DE-BTvd2BNAr-29" edge="1">
          <mxGeometry width="50" height="50" relative="1" as="geometry">
            <mxPoint x="132.5" y="299" as="sourcePoint" />
            <mxPoint x="132" y="99" as="targetPoint" />
          </mxGeometry>
        </mxCell>
        <mxCell id="es1kvYz4DE-BTvd2BNAr-31" value="msg" style="ellipse;whiteSpace=wrap;html=1;aspect=fixed;" parent="oYCAlV7U3Ks-yG-8bzPH-1" vertex="1">
          <mxGeometry x="112.5" y="179" width="40" height="40" as="geometry" />
        </mxCell>
        <mxCell id="es1kvYz4DE-BTvd2BNAr-32" value="" style="endArrow=none;dashed=1;html=1;dashPattern=1 3;strokeWidth=2;startArrow=none;" parent="oYCAlV7U3Ks-yG-8bzPH-1" source="es1kvYz4DE-BTvd2BNAr-29" target="es1kvYz4DE-BTvd2BNAr-31" edge="1">
          <mxGeometry width="50" height="50" relative="1" as="geometry">
            <mxPoint x="130.20832203144664" y="239.0010849811515" as="sourcePoint" />
            <mxPoint x="132" y="99" as="targetPoint" />
          </mxGeometry>
        </mxCell>
        <mxCell id="es1kvYz4DE-BTvd2BNAr-33" value="" style="shape=curlyBracket;whiteSpace=wrap;html=1;rounded=1;flipH=1;fontColor=#FF6666;rotation=-90;dashed=1;strokeWidth=2;dashPattern=1 4;perimeterSpacing=0;" parent="oYCAlV7U3Ks-yG-8bzPH-1" vertex="1">
          <mxGeometry x="397.5" y="40" width="20" height="230" as="geometry" />
        </mxCell>
        <mxCell id="es1kvYz4DE-BTvd2BNAr-35" style="edgeStyle=none;html=1;entryX=0.49;entryY=0.036;entryDx=0;entryDy=0;entryPerimeter=0;dashed=1;fontColor=#FF6666;startArrow=none;startFill=0;endArrow=none;endFill=0;strokeColor=#FFFFFF;dashPattern=1 4;strokeWidth=2;" parent="oYCAlV7U3Ks-yG-8bzPH-1" source="es1kvYz4DE-BTvd2BNAr-14" target="es1kvYz4DE-BTvd2BNAr-15" edge="1">
          <mxGeometry relative="1" as="geometry" />
        </mxCell>
        <mxCell id="es1kvYz4DE-BTvd2BNAr-14" value="msg" style="ellipse;whiteSpace=wrap;html=1;aspect=fixed;" parent="oYCAlV7U3Ks-yG-8bzPH-1" vertex="1">
          <mxGeometry x="112.5" y="360" width="40" height="40" as="geometry" />
        </mxCell>
        <mxCell id="es1kvYz4DE-BTvd2BNAr-36" value="" style="endArrow=none;dashed=1;html=1;dashPattern=1 4;fontColor=#FF6666;strokeColor=#000000;strokeWidth=2;entryX=1.03;entryY=0.001;entryDx=0;entryDy=0;entryPerimeter=0;" parent="oYCAlV7U3Ks-yG-8bzPH-1" target="es1kvYz4DE-BTvd2BNAr-33" edge="1">
          <mxGeometry width="50" height="50" relative="1" as="geometry">
            <mxPoint x="293" y="480" as="sourcePoint" />
            <mxPoint x="360" y="280" as="targetPoint" />
          </mxGeometry>
        </mxCell>
        <mxCell id="es1kvYz4DE-BTvd2BNAr-37" value="" style="endArrow=none;dashed=1;html=1;dashPattern=1 4;fontColor=#FF6666;strokeColor=#000000;strokeWidth=2;entryX=0.93;entryY=0.994;entryDx=0;entryDy=0;entryPerimeter=0;" parent="oYCAlV7U3Ks-yG-8bzPH-1" edge="1">
          <mxGeometry width="50" height="50" relative="1" as="geometry">
            <mxPoint x="522" y="480" as="sourcePoint" />
            <mxPoint x="522.12" y="163.60000000000008" as="targetPoint" />
          </mxGeometry>
        </mxCell>
        <mxCell id="es1kvYz4DE-BTvd2BNAr-38" value="" style="endArrow=none;dashed=1;html=1;dashPattern=1 3;strokeWidth=2;fontColor=#FF6666;exitX=1;exitY=0.5;exitDx=0;exitDy=0;entryX=-0.033;entryY=0.197;entryDx=0;entryDy=0;entryPerimeter=0;strokeColor=#FF6666;" parent="oYCAlV7U3Ks-yG-8bzPH-1" source="es1kvYz4DE-BTvd2BNAr-31" target="es1kvYz4DE-BTvd2BNAr-44" edge="1">
          <mxGeometry width="50" height="50" relative="1" as="geometry">
            <mxPoint x="330" y="350" as="sourcePoint" />
            <mxPoint x="560" y="199" as="targetPoint" />
          </mxGeometry>
        </mxCell>
        <mxCell id="es1kvYz4DE-BTvd2BNAr-40" value="" style="endArrow=none;dashed=1;html=1;dashPattern=1 3;strokeWidth=2;fontColor=#FF6666;exitX=1;exitY=0.5;exitDx=0;exitDy=0;strokeColor=#FF6666;" parent="oYCAlV7U3Ks-yG-8bzPH-1" edge="1">
          <mxGeometry width="50" height="50" relative="1" as="geometry">
            <mxPoint x="152.5" y="319.76" as="sourcePoint" />
            <mxPoint x="390" y="320" as="targetPoint" />
          </mxGeometry>
        </mxCell>
        <mxCell id="es1kvYz4DE-BTvd2BNAr-41" value="" style="endArrow=none;dashed=1;html=1;dashPattern=1 3;strokeWidth=2;fontColor=#FF6666;exitX=1;exitY=0.5;exitDx=0;exitDy=0;entryX=0;entryY=0.5;entryDx=0;entryDy=0;strokeColor=#FF6666;" parent="oYCAlV7U3Ks-yG-8bzPH-1" target="es1kvYz4DE-BTvd2BNAr-53" edge="1">
          <mxGeometry width="50" height="50" relative="1" as="geometry">
            <mxPoint x="149.5" y="379.76" as="sourcePoint" />
            <mxPoint x="500" y="380" as="targetPoint" />
          </mxGeometry>
        </mxCell>
        <mxCell id="es1kvYz4DE-BTvd2BNAr-42" value="" style="endArrow=none;dashed=1;html=1;dashPattern=1 3;strokeWidth=2;fontColor=#FF6666;exitX=1;exitY=0.5;exitDx=0;exitDy=0;entryX=0;entryY=0.5;entryDx=0;entryDy=0;strokeColor=#FF6666;" parent="oYCAlV7U3Ks-yG-8bzPH-1" target="es1kvYz4DE-BTvd2BNAr-56" edge="1">
          <mxGeometry width="50" height="50" relative="1" as="geometry">
            <mxPoint x="152.5" y="442.76" as="sourcePoint" />
            <mxPoint x="560" y="442.76" as="targetPoint" />
          </mxGeometry>
        </mxCell>
        <mxCell id="es1kvYz4DE-BTvd2BNAr-51" value="" style="endArrow=none;dashed=1;html=1;dashPattern=1 3;strokeWidth=2;fontColor=#FF6666;exitX=1;exitY=0.5;exitDx=0;exitDy=0;strokeColor=#FF6666;" parent="oYCAlV7U3Ks-yG-8bzPH-1" target="es1kvYz4DE-BTvd2BNAr-45" edge="1">
          <mxGeometry width="50" height="50" relative="1" as="geometry">
            <mxPoint x="152.5" y="259.76" as="sourcePoint" />
            <mxPoint x="560" y="259.76" as="targetPoint" />
          </mxGeometry>
        </mxCell>
        <mxCell id="es1kvYz4DE-BTvd2BNAr-45" value="cbk" style="rounded=0;whiteSpace=wrap;html=1;fontColor=#000000;" parent="oYCAlV7U3Ks-yG-8bzPH-1" vertex="1">
          <mxGeometry x="392.5" y="240" width="30" height="40" as="geometry" />
        </mxCell>
        <mxCell id="es1kvYz4DE-BTvd2BNAr-53" value="cbk" style="rounded=0;whiteSpace=wrap;html=1;fontColor=#000000;" parent="oYCAlV7U3Ks-yG-8bzPH-1" vertex="1">
          <mxGeometry x="507" y="360" width="30" height="40" as="geometry" />
        </mxCell>
        <mxCell id="es1kvYz4DE-BTvd2BNAr-44" value="cbk" style="rounded=0;whiteSpace=wrap;html=1;fontColor=#000000;strokeColor=#000000;" parent="oYCAlV7U3Ks-yG-8bzPH-1" vertex="1">
          <mxGeometry x="277" y="180" width="30" height="110" as="geometry" />
        </mxCell>
        <mxCell id="es1kvYz4DE-BTvd2BNAr-56" value="cbk" style="rounded=0;whiteSpace=wrap;html=1;fontColor=#000000;" parent="oYCAlV7U3Ks-yG-8bzPH-1" vertex="1">
          <mxGeometry x="277" y="423" width="30" height="40" as="geometry" />
        </mxCell>
        <mxCell id="es1kvYz4DE-BTvd2BNAr-52" value="cbk" style="rounded=0;whiteSpace=wrap;html=1;fontColor=#000000;" parent="oYCAlV7U3Ks-yG-8bzPH-1" vertex="1">
          <mxGeometry x="392.5" y="300" width="30" height="90" as="geometry" />
        </mxCell>
      </root>
    </mxGraphModel>
  </diagram>
</mxfile>
